<svg xmlns="http://www.w3.org/2000/svg" viewBox="0 0 512 512">
  <defs>
    <radialGradient id="bg" cx="0.5" cy="0.3" r="0.8">
      <stop offset="0" stop-color="#1C2541"/>
      <stop offset="1" stop-color="#0B132B"/>
    </radialGradient>
    <linearGradient id="stroke" x1="0" y1="0" x2="1" y2="1">
      <stop offset="0" stop-color="#9DFBFF"/>
      <stop offset="1" stop-color="#00C2E0"/>
    </linearGradient>
    <linearGradient id="flame" x1="0.5" y1="1" x2="0.5" y2="0">
      <stop offset="0" stop-color="#00E5FF"/>
      <stop offset="1" stop-color="#FFFFFF"/>
    </linearGradient>
  </defs>
  <rect width="512" height="512" rx="112" fill="url(#bg)"/>
  <g transform="translate(256 262) scale(0.76) translate(-256 -255)">
    <path d="M256 96C214 96 190 78 158 78C108 78 84 124 84 178C84 236 108 268 122 318C134 362 138 432 172 432C206 432 206 346 256 346C306 346 306 432 340 432C374 432 378 362 390 318C404 268 428 236 428 178C428 124 404 78 354 78C322 78 298 96 256 96Z" fill="none" stroke="url(#stroke)" stroke-width="30" stroke-linejoin="round"/>
    <path d="M256 138C290 182 318 214 312 262C307 300 284 322 256 330C228 322 205 300 200 262C194 214 222 182 256 138Z" fill="url(#flame)"/>
    <path d="M256 222C268 240 279 254 277 276C275 292 266 301 256 305C246 301 237 292 235 276C233 254 244 240 256 222Z" fill="#0B132B" fill-opacity="0.55"/>
  </g>
</svg>
